<svg width="18" height="20" viewBox="0 0 18 20" fill="none" xmlns="http://www.w3.org/2000/svg">
<path d="M17.0128 14.152C16.2941 13.341 14.9492 12.1211 14.9492 8.125C14.9492 5.08984 12.9224 2.66016 10.1896 2.06406V1.25C10.1896 0.559766 9.65683 0 8.99984 0C8.34285 0 7.81011 0.559766 7.81011 1.25V2.06406C5.07723 2.66016 3.05045 5.08984 3.05045 8.125C3.05045 12.1211 1.70559 13.341 0.986841 14.152C0.763628 14.4039 0.66467 14.7051 0.66653 15C0.670622 15.6406 1.14941 16.25 1.86072 16.25H16.139C16.8503 16.25 17.3294 15.6406 17.3331 15C17.335 14.7051 17.236 14.4035 17.0128 14.152ZM3.1788 14.375C3.96823 13.2824 4.83132 11.4715 4.83542 8.14766C4.83542 8.13984 4.83318 8.13281 4.83318 8.125C4.83318 5.70859 6.69851 3.75 8.99984 3.75C11.3012 3.75 13.1665 5.70859 13.1665 8.125C13.1665 8.13281 13.1643 8.13984 13.1643 8.14766C13.1684 11.4719 14.0314 13.2828 14.8209 14.375H3.1788ZM8.99984 20C10.3138 20 11.3797 18.8809 11.3797 17.5H6.62001C6.62001 18.8809 7.68585 20 8.99984 20Z" fill="#909EBB"/>
</svg>
