<svg width="22" height="22" viewBox="0 0 22 22" fill="none" xmlns="http://www.w3.org/2000/svg">
<path d="M11 11C10.2395 11 9.625 11.6145 9.625 12.375C9.625 13.1355 10.2395 13.75 11 13.75C11.7605 13.75 12.375 13.1355 12.375 12.375C12.375 11.6145 11.7605 11 11 11ZM19.25 0H2.75C1.2332 0 0 1.2332 0 2.75V15.125C0 16.6418 1.2332 17.875 2.75 17.875H6.875V21.4844C6.875 21.7895 7.12422 22 7.39062 22C7.49375 22 7.60117 21.9699 7.6957 21.8969L13.0625 17.875H19.25C20.7668 17.875 22 16.6418 22 15.125V2.75C22 1.2332 20.7668 0 19.25 0ZM19.9375 15.125C19.9375 15.5031 19.6281 15.8125 19.25 15.8125H12.375L11.825 16.225L8.9375 18.3906V15.8125H2.75C2.37188 15.8125 2.0625 15.5031 2.0625 15.125V2.75C2.0625 2.37188 2.37188 2.0625 2.75 2.0625H19.25C19.6281 2.0625 19.9375 2.37188 19.9375 2.75V15.125ZM12.2332 4.125H9.7668C9.33711 4.125 9.01055 4.51602 9.09219 4.93711L9.86563 9.06211C9.92578 9.38867 10.2094 9.625 10.5402 9.625H11.4598C11.7906 9.625 12.0742 9.38867 12.1344 9.06211L12.9078 4.93711C12.9895 4.51602 12.6629 4.125 12.2332 4.125Z" fill="#6F7C98"/>
</svg>
