<svg width="24" height="22" viewBox="0 0 24 22" fill="none" xmlns="http://www.w3.org/2000/svg">
<path d="M2 6.66667H22C22.3683 6.66667 22.6667 6.36833 22.6667 6V4.46208C22.6667 4.18417 22.4942 3.93542 22.2342 3.83792L12.4683 0.085C12.3175 0.02833 12.1588 0 12 0C11.8413 0 11.6825 0.02833 11.5317 0.085L1.76583 3.83792C1.63879 3.88558 1.52932 3.97088 1.45204 4.08241C1.37476 4.19394 1.33334 4.32639 1.33333 4.46208V6C1.33333 6.36833 1.63167 6.66667 2 6.66667ZM12 2.0475L18.8158 4.66667H5.18417L12 2.0475ZM23.3333 19.3333H22.6667V16.6667C22.6667 15.9304 21.9846 15.3333 21.1429 15.3333H20V8H18V15.3333H15.3333V8H13.3333V15.3333H10.6667V8H8.66667V15.3333H6V8H4V15.3333H2.85708C2.01542 15.3333 1.33333 15.9304 1.33333 16.6667V19.3333H0.666667C0.298333 19.3333 0 19.6317 0 20V20.6667C0 21.035 0.298333 21.3333 0.666667 21.3333H23.3333C23.7017 21.3333 24 21.035 24 20.6667V20C24 19.6317 23.7017 19.3333 23.3333 19.3333ZM20.6667 19.3333H3.33333V17.3333H20.6667V19.3333Z" fill="#6F7C98"/>
</svg>
