<svg width="22" height="20" viewBox="0 0 22 20" fill="none" xmlns="http://www.w3.org/2000/svg">
<path d="M8.5 13C7.94772 13 7.5 12.5523 7.5 12C7.5 11.4477 7.94772 11 8.5 11H13.5C14.0523 11 14.5 11.4477 14.5 12C14.5 12.5523 14.0523 13 13.5 13H8.5Z" fill="#6F7C98"/>
<path fill-rule="evenodd" clip-rule="evenodd" d="M7 0H15C16 0 16 1.00001 16 1.00001V4H20.2C21.1938 4 22 4.83984 22 5.875L22 18C22 19.0352 20.9937 20 20 20H2C1.00625 20 0 19.0352 0 18L1.83924e-05 9.00613C6.1366e-06 9.00409 0 9.00204 0 9C0 8.99795 6.14497e-06 8.99591 1.84175e-05 8.99387L2.47955e-05 5.875C2.47955e-05 4.83984 0.806275 4 1.80002 4H6V1.00001C6 1.00001 6 0 7 0ZM8.00002 4H14V2H8.00002V4ZM2.00002 10V18H20V10H2.00002ZM20 8H2.00002V6H20V8Z" fill="#6F7C98"/>
</svg>
