<svg width="18" height="18" viewBox="0 0 18 18" fill="none" xmlns="http://www.w3.org/2000/svg">
<path d="M15.1651 15.1651C18.57 11.7602 18.57 6.23981 15.1651 2.83492C11.7602 -0.569973 6.23981 -0.569973 2.83492 2.83492C-0.569973 6.23981 -0.569973 11.7602 2.83492 15.1651C6.23981 18.57 11.7602 18.57 15.1651 15.1651ZM10.6875 15.8283L10.6875 13.1728C11.8139 12.7179 12.7173 11.8153 13.1728 10.6875H15.8283C15.2093 13.2116 13.2116 15.2093 10.6875 15.8283ZM10.9887 7.01127C12.0853 8.10786 12.0853 9.89215 10.9887 10.9887C9.89215 12.0853 8.10786 12.0853 7.01127 10.9887C5.91468 9.89215 5.91468 8.10786 7.01127 7.01127C8.10786 5.91468 9.89215 5.91468 10.9887 7.01127ZM15.8283 7.31251H13.1728C12.7178 6.18612 11.8153 5.28276 10.6875 4.82724L10.6875 2.17173C13.2116 2.79067 15.2093 4.78841 15.8283 7.31251ZM7.31249 2.17175L7.31249 4.82726C6.18609 5.28221 5.28273 6.18472 4.82724 7.31251H2.17173C2.79067 4.78841 4.78841 2.79067 7.31249 2.17175ZM2.17173 10.6875H4.82724C5.28216 11.8139 6.1847 12.7173 7.31251 13.1728L7.31251 15.8283C4.78841 15.2093 2.79067 13.2116 2.17173 10.6875Z" fill="#909EBB"/>
</svg>
