<svg width="16" height="16" viewBox="0 0 16 16" fill="none" xmlns="http://www.w3.org/2000/svg">
<path d="M13.483 2.6665H2.51685C2.32344 2.66615 2.14612 2.77156 2.05771 2.93943C1.96807 3.10957 1.9838 3.31445 2.09831 3.46983L6.11586 8.99125C6.1172 8.99315 6.11867 8.99494 6.12001 8.99684C6.26598 9.18911 6.34488 9.42194 6.34537 9.66132V14.1629C6.34452 14.2963 6.39818 14.4243 6.49452 14.5189C6.59086 14.6134 6.72183 14.6665 6.85842 14.6665C6.92793 14.6665 6.99659 14.6529 7.06074 14.627L9.31829 13.7872C9.5206 13.727 9.65487 13.5408 9.65487 13.3165V9.66132C9.65524 9.42206 9.73426 9.18911 9.88012 8.99684C9.88146 8.99494 9.88292 8.99315 9.88426 8.99125L13.9017 3.46959C14.0162 3.31433 14.0319 3.10957 13.9423 2.93943C13.8539 2.77156 13.6766 2.66615 13.483 2.6665ZM9.3767 8.63599C9.15231 8.93307 9.03097 9.29226 9.03024 9.66132V13.2425L6.96976 14.0089V9.66132C6.96903 9.29226 6.84769 8.93307 6.62318 8.63599L2.72282 3.27566H13.2772L9.3767 8.63599Z" fill="#0068BD"/>
<path d="M9.3767 8.63599C9.15231 8.93307 9.03097 9.29226 9.03024 9.66132V13.2425L6.96976 14.0089V9.66132C6.96903 9.29226 6.84769 8.93307 6.62318 8.63599L2.72282 3.27566H13.2772L9.3767 8.63599Z" fill="#0068BD"/>
</svg>
