<svg width="32" height="32" viewBox="0 0 32 32" fill="none" xmlns="http://www.w3.org/2000/svg">
<path d="M21.9186 10.6667C21.3655 10.2313 20.7017 10.2313 20.2592 10.3401C20.4804 10.0136 21.1442 9.79592 21.3655 9.68707C21.4761 9.79592 21.9186 10.2313 21.9186 10.6667ZM23.4674 8.81633C23.1355 7.07483 19.0423 8.27211 16.9403 7.5102C16.9403 8.05442 17.6041 8.81633 18.2679 9.14286C17.1616 10.1224 16.1659 11.9728 15.9447 14.2585C15.7234 11.9728 14.7278 10.0136 13.6215 9.14286C14.2853 8.81633 14.949 8.05442 14.949 7.5102C12.8471 8.27211 8.75384 7.07483 8.42195 8.81633C8.42195 9.2517 8.53258 9.79592 8.75384 9.90476C8.75384 9.79592 8.9751 9.46939 9.52824 9.36055C12.4046 8.92517 14.8384 13.2789 12.6258 15.1293V15.2381H19.1529C19.1529 15.2381 19.2635 15.2381 19.1529 15.1293C16.9403 13.3878 19.3742 8.92517 22.2505 9.36055C22.9143 9.46939 23.1355 9.79592 23.1355 9.90476C23.3568 9.79592 23.578 9.2517 23.4674 8.81633ZM24.1312 4.89796C24.1312 4.68027 25.7906 4.68027 25.7906 5.76871C25.7906 6.42177 24.795 6.7483 24.795 7.5102C24.795 7.83674 25.1268 8.05442 25.2375 8.05442C25.0162 6.85714 26.0119 7.5102 26.3438 7.72789C25.7906 6.20408 27.1182 6.20408 26.8969 5.44218C26.7863 4.89796 25.68 5.11565 25.2375 4.78912C24.4631 4.35374 23.6887 2.61224 23.1355 4.35374C24.2418 5.33333 23.578 6.7483 22.2505 6.7483V6.96599C23.9099 6.96599 24.4631 5.76871 24.1312 4.89796ZM5.54562 7.72789C5.8775 7.5102 6.87316 6.85714 6.6519 8.05442C6.76253 8.05442 7.09441 7.83674 7.09441 7.5102C7.09441 6.7483 6.09876 6.42177 6.09876 5.76871C6.09876 4.68027 7.75818 4.68027 7.75818 4.89796C7.4263 5.87755 7.97944 6.96599 9.63887 7.07483V6.85714C8.2007 6.85714 7.64756 5.33333 8.64321 4.46258C8.09007 2.72109 7.20504 4.46258 6.54127 4.89796C6.09876 5.11565 4.99247 5.0068 4.88185 5.44218C4.77122 6.20408 6.09876 6.20408 5.54562 7.72789ZM10.0814 10.6667C10.6345 10.2313 11.2983 10.2313 11.7408 10.3401C11.5195 10.0136 10.8558 9.79592 10.6345 9.68707C10.4133 9.79592 10.0814 10.2313 10.0814 10.6667ZM16.7191 0.979592L15.9447 0L15.1703 0.979592L15.9447 1.95918L16.7191 0.979592ZM21.1442 3.80952L20.5911 3.15646L20.0379 3.80952L20.5911 4.46258L21.1442 3.80952ZM25.68 23.0748L25.0162 22.3129L24.2418 23.0748L24.9056 23.7279L25.68 23.0748ZM11.8514 3.80952L11.2983 3.15646L10.7452 3.80952L11.2983 4.46258L11.8514 3.80952ZM10.192 7.07483H12.2939C14.064 7.07483 14.8384 5.98639 15.0597 5.11565H16.8297C17.051 5.98639 17.8254 7.07483 19.5954 7.07483H21.6974C21.6974 7.07483 22.0292 6.63946 22.1399 6.31293C22.4718 5.44218 22.0292 5.0068 21.3655 5.0068L20.5911 5.65986L19.8167 5.0068C19.1529 5.0068 18.821 5.44218 19.1529 6.31293C19.1529 6.42177 19.2635 6.63946 19.3742 6.7483C18.5998 6.63946 17.7147 6.20408 17.4935 5.11565C17.4935 5.11565 18.0466 4.2449 18.1573 3.91837C18.7104 2.61224 18.0466 2.17687 17.1616 2.17687L15.9447 3.59184L14.7278 2.17687C13.8427 2.17687 13.179 2.72109 13.7321 3.91837C13.8427 4.2449 14.3959 5.11565 14.3959 5.11565C14.1746 6.20408 13.2896 6.63946 12.5152 6.7483C12.6258 6.63946 12.7365 6.42177 12.7365 6.31293C13.0683 5.44218 12.6258 5.0068 12.0727 5.0068L11.2983 5.65986L10.5239 5.0068C9.86012 5.0068 9.41761 5.44218 9.74949 6.31293C9.86012 6.53061 10.192 7.07483 10.192 7.07483ZM31.6539 13.3878C31.2114 13.6054 28.8882 14.6939 25.9012 14.2585C25.9012 14.1497 26.0119 13.932 26.0119 13.8231C28.0032 13.6054 29.6626 13.2789 30.6583 12.7347C31.8752 12.0816 32.3177 10.5578 31.7645 9.36055H31.6539C31.322 9.68708 29.2201 11.9728 26.0119 12.6259C26.0119 12.4082 26.0119 12.2993 26.0119 12.0816C27.5607 11.2109 29.1095 10.2313 29.8839 9.2517C30.9901 7.83674 30.8795 6.09524 29.8839 5.11565H29.7732C29.4414 5.65986 26.3438 10.5578 22.9143 12.7347C22.9143 12.7347 22.8036 12.7347 22.8036 12.8435C22.693 12.9524 22.693 13.0612 22.8036 13.0612C23.2462 13.3878 23.4674 13.932 23.4674 14.4762C23.4674 15.4558 22.693 16.2177 21.6974 16.3265C21.2549 16.4354 20.4804 16.4354 19.8167 16.2177H19.7061V19.1565C19.7061 19.1565 19.8167 19.2653 19.8167 19.1565C20.2592 18.068 21.4761 17.8503 22.0292 17.8503C22.2505 19.0476 22.5824 20.0272 23.0249 20.4626C23.7993 21.3333 25.0162 21.3333 25.5694 20.6803C25.5694 20.6803 25.5694 20.6803 25.5694 20.5714C25.2375 20.3537 23.4674 19.3742 23.1355 17.5238C23.2462 17.5238 23.4674 17.415 23.578 17.3061C24.1312 18.2857 25.0162 19.0476 25.68 19.3741C26.7863 19.9184 27.8926 19.7007 28.3351 18.8299V18.7211C27.6713 18.6122 25.4587 18.068 24.5737 16.5442C24.6843 16.4354 24.795 16.3265 24.9056 16.2177C25.9012 16.9796 27.2288 17.5238 28.2244 17.7415C29.3307 17.8503 30.6583 17.5238 30.6583 16.2177C30.2157 16.2177 27.5607 16.3265 25.68 15.2381C25.7906 15.1293 25.7906 15.0204 25.9012 14.9116C25.9012 14.9116 28.7776 15.5646 30.1051 15.3469C31.1008 15.5646 31.8752 14.585 31.6539 13.3878C31.7645 13.3878 31.6539 13.3878 31.6539 13.3878ZM6.43064 15.3469C6.43064 15.4558 6.54127 15.6735 6.54127 15.7823C4.66059 16.8707 2.00551 16.7619 1.56299 16.7619C1.56299 18.068 2.89053 18.3946 3.99682 18.2857C4.99247 18.1769 6.32001 17.5238 7.31567 16.7619C7.4263 16.8707 7.53693 16.9796 7.64756 17.0884C6.76253 18.6122 4.54996 19.1565 3.88619 19.2653C3.88619 19.2653 3.88619 19.2653 3.88619 19.3741C4.3287 20.1361 5.32436 20.4626 6.54127 19.9184C7.20504 19.5918 8.09007 18.7211 8.64321 17.8503C8.75384 17.9592 8.86447 17.9592 9.08572 18.068C8.53258 19.5918 6.76253 20.6803 6.43064 20.7891C6.43064 20.7891 6.43064 20.7891 6.43064 20.898C6.98379 21.4422 8.2007 21.4422 8.9751 20.6803C9.41761 20.1361 9.74949 19.1565 9.97075 18.068C10.5239 18.068 11.7408 18.2857 12.1833 19.3741H12.2939V16.3265C12.2939 16.3265 12.2939 16.3265 12.1833 16.3265C11.5195 16.5442 10.7451 16.5442 10.3026 16.4354C9.30698 16.2177 8.53258 15.4558 8.53258 14.585C8.53258 14.0408 8.75384 13.6054 9.19635 13.1701C9.30698 13.0612 9.30698 12.9524 9.19635 12.9524L9.08572 12.8435C5.65624 10.6667 2.55865 5.76871 2.22676 5.22449C2.22676 5.22449 2.22676 5.22449 2.11614 5.22449C1.12048 6.09524 1.00985 7.94558 2.11614 9.36055C2.89053 10.2313 4.3287 11.3197 5.98813 12.1905C5.98813 12.2993 5.98813 12.517 5.98813 12.7347C2.77991 12.0816 0.677966 9.90476 0.346081 9.46939H0.235452C-0.31769 10.6667 0.124824 12.1905 1.34174 12.8435C2.33739 13.3878 3.99682 13.7143 5.98813 13.932C5.98813 14.0408 5.98813 14.2585 6.09876 14.3673C3.11179 14.8027 0.788594 13.7143 0.346081 13.4966H0.235452C0.124824 14.6939 0.899223 15.6735 2.22676 15.8912C3.5543 16 6.43064 15.3469 6.43064 15.3469ZM25.0162 24.5986L24.0206 23.8367C23.578 24.0544 23.2462 24.4898 23.1355 24.9252C22.4718 25.034 20.8123 24.5986 20.923 24.381C22.8036 21.7687 21.3655 20.2449 19.5954 20.3537V22.0952C19.5954 22.6395 19.1529 23.0748 18.4891 23.0748H17.2722C16.3872 23.0748 15.8341 23.9456 15.8341 23.9456C15.8341 23.9456 15.2809 23.0748 14.3959 23.0748H13.179C12.5152 23.0748 12.0727 22.6395 12.0727 22.0952V20.3537C10.5239 20.2449 9.08572 21.7687 10.9664 24.381C11.077 24.5986 9.41761 25.034 8.53258 24.9252C8.31133 24.7075 7.97944 24.5986 7.64756 24.5986C7.53693 24.5986 7.31567 24.5986 7.20504 24.7075C7.20504 24.7075 3.99682 21.6599 3.88619 21.6599V21.551C4.10745 21.2245 3.77556 20.7891 3.66493 20.898C3.88619 20.6803 3.88619 19.5918 2.77991 19.3741C2.77991 19.5918 2.77991 20.0272 2.77991 20.0272C2.77991 20.0272 1.89488 19.5918 1.45236 19.9184C1.00985 20.3537 1.56299 21.2245 1.56299 21.2245C1.56299 21.2245 1.12048 21.2245 0.899223 21.2245C1.23111 22.3129 2.33739 22.2041 2.55865 21.9864C2.55865 22.2041 2.89053 22.4218 3.33305 22.2041L3.44368 22.0952L6.6519 25.034C6.54127 25.2517 6.43064 25.4694 6.54127 25.7959C6.6519 26.2313 6.98379 26.5578 7.4263 26.6667C7.75818 26.7755 8.09007 26.6667 8.31133 26.5578L9.19635 27.3197C9.30698 27.4286 9.41761 27.4286 9.52824 27.4286C9.74949 27.4286 9.86012 27.2109 9.86012 27.102C9.86012 26.9932 9.86012 26.9932 9.74949 26.8844L8.86447 26.1224C9.52824 25.6871 10.8558 25.3605 11.9621 25.3605C12.1833 25.3605 12.1833 25.2517 12.1833 25.034C11.7408 23.8367 12.7365 23.0748 13.8427 23.7279C14.2853 24.0544 14.8384 24.5986 15.1703 25.5782C13.4002 26.0136 11.1877 27.2109 10.7452 28.4082C10.5239 28.8435 11.1877 29.6054 11.8514 29.7143C11.8514 29.7143 11.8514 29.7143 11.9621 29.7143C12.2939 27.8639 14.3959 26.449 15.5022 26.2313C15.5022 26.3401 15.5022 26.3401 15.6128 26.449C14.3959 26.9932 13.2896 28.1905 12.9577 29.4966C12.8471 30.1497 13.5109 30.6939 14.064 30.8027H14.1746C14.2853 29.0612 15.0597 27.6463 15.7234 26.9932C15.7234 27.102 15.7234 27.2109 15.7234 27.4286C15.7234 27.4286 15.0597 29.3878 15.0597 30.8027C15.0597 31.4558 16.0553 31.8912 16.1659 32C16.3872 31.8912 17.3829 31.4558 17.3829 30.8027C17.3829 29.3878 16.7191 27.4286 16.7191 27.4286C16.7191 27.3197 16.7191 27.2109 16.7191 26.9932C17.3829 27.6463 18.1573 29.1701 18.2679 30.8027C18.2679 30.8027 18.2679 30.8027 18.3785 30.8027C18.9317 30.6939 19.7061 30.0408 19.4848 29.4966C19.1529 28.0816 18.0466 26.9932 16.8297 26.449C16.8297 26.3401 16.8297 26.3401 16.9403 26.2313C18.0466 26.449 20.0379 27.8639 20.4805 29.7143C20.4805 29.7143 20.4805 29.7143 20.5911 29.7143C21.2549 29.6054 21.808 28.9524 21.6974 28.4082C21.2549 27.102 19.0423 26.0136 17.2722 25.5782C17.6041 24.5986 18.1573 24.0544 18.5998 23.7279C19.7061 23.0748 20.7017 23.8367 20.2592 25.034C20.1486 25.1429 20.2592 25.3605 20.4805 25.3605C21.6974 25.3605 23.1355 25.7959 23.7993 26.3401C24.1312 26.8844 24.9056 27.2109 25.68 27.2109C26.565 27.102 27.3394 26.449 27.45 25.6871C27.5607 24.9252 27.1182 24.381 26.565 23.9456L25.0162 24.5986ZM17.2722 19.3741C17.6041 19.2653 18.2679 19.3741 18.1573 19.9184C18.1573 20.0272 18.2679 20.0272 18.3785 19.9184C18.4891 19.1565 17.936 18.9388 17.3829 18.9388C17.2722 18.7211 17.2722 18.3946 17.1616 18.1769C17.1616 17.9592 17.051 17.6327 17.2722 17.6327C17.3829 17.6327 17.3829 17.9592 17.3829 18.068C17.3829 18.1769 17.3829 18.2857 17.4935 18.2857C17.6041 18.2857 17.6041 18.1769 17.7147 18.1769C18.0466 17.8503 18.1573 17.3061 17.7147 16.9796C17.3829 16.7619 16.6085 16.8707 16.3872 17.1973C16.3872 17.0884 16.1659 16.8707 16.1659 16.7619C16.0553 16.6531 16.0553 16.6531 16.1659 16.5442C16.1659 16.5442 16.3872 16.3265 16.3872 16.2177C16.3872 16.1088 16.2766 16 16.0553 16C15.8341 16 15.7234 16.1088 15.7234 16.3265C15.7234 16.4354 15.7234 16.4354 15.7234 16.5442C15.6128 16.5442 15.2809 16.5442 15.1703 16.5442L17.2722 22.2041C17.8254 21.8776 18.2679 21.4422 18.2679 21.0068C18.2679 20.5714 17.6041 20.6803 17.3829 21.0068C17.2722 20.4626 17.1616 20.0272 17.051 19.483C17.1616 19.483 17.1616 19.483 17.2722 19.3741ZM14.3959 15.5646L14.8384 16.7619C14.5065 16.8707 13.8427 17.0884 13.8427 17.5238C13.8427 17.9592 14.7278 18.2857 15.1703 18.2857C15.1703 18.3946 15.1703 18.5034 15.2809 18.6122C15.0597 18.6122 14.7278 18.7211 14.6171 18.8299C14.2853 18.5034 13.9534 18.3946 13.7321 18.5034C13.5109 18.6122 13.5109 18.9388 13.7321 19.1565C13.8427 19.3742 13.9534 19.5918 13.7321 19.8095C14.2853 19.8095 14.064 19.0476 14.3959 19.0476C14.3959 19.1565 14.3959 19.3742 14.5065 19.5918C14.5065 19.7007 14.5065 19.8095 14.5065 19.9184C14.2853 20.2449 14.064 20.898 14.064 21.551C13.8427 21.551 13.7321 21.551 13.8427 21.2245C13.8427 21.1156 13.8427 21.0068 13.7321 21.2245C13.6215 21.3333 13.6215 21.551 13.6215 21.6599C13.6215 22.2041 14.2853 22.3129 14.5065 22.2041C15.2809 22.966 16.7191 22.7483 17.2722 22.5306L14.7278 15.5646C14.5065 15.3469 14.2853 15.4558 14.3959 15.5646ZM14.2853 21.3333C14.2853 21.0068 14.6171 20.5714 15.1703 20.0272C15.0597 20.3537 15.1703 20.898 15.3915 21.1156C14.949 21.1156 14.5065 21.1156 14.2853 21.3333Z" fill="white"/>
</svg>
