<svg width="22" height="18" viewBox="0 0 22 18" fill="none" xmlns="http://www.w3.org/2000/svg">
<path d="M20.3389 4.90235L21.4024 4.4371C21.9068 4.21643 22.1369 3.62855 21.9161 3.12414C21.6955 2.61974 21.1076 2.38951 20.6032 2.61037L19.5398 3.07563C19.0353 3.29629 18.8053 3.88417 19.026 4.38858C19.2469 4.89338 19.835 5.12302 20.3389 4.90235Z" fill="#6F7C98"/>
<path d="M21.4024 11.5165L20.3389 11.0512C19.8345 10.8305 19.2467 11.0605 19.026 11.565C18.8053 12.0694 19.0353 12.6573 19.5398 12.8779L20.6032 13.3432C21.1076 13.5639 21.6955 13.3338 21.9161 12.8294C22.1369 12.3249 21.9068 11.7371 21.4024 11.5165Z" fill="#6F7C98"/>
<path d="M21.0025 6.97988H19.9391C19.3885 6.97988 18.9421 7.42626 18.9421 7.97686C18.9421 8.52746 19.3885 8.97384 19.9391 8.97384H21.0025C21.5531 8.97384 21.9995 8.52746 21.9995 7.97686C21.9995 7.42626 21.5531 6.97988 21.0025 6.97988Z" fill="#6F7C98"/>
<path fill-rule="evenodd" clip-rule="evenodd" d="M15.5086 0.104834L13.9576 0.873896L7.67566 3.98889H2.32626C1.06589 3.98889 0.0370862 4.9967 0.00166055 6.24869L0 8.24263V9.63838C0 10.7483 0.781623 11.6786 1.82326 11.9093L1.01053 16.7856C0.909235 17.3931 1.37847 17.9465 1.99394 17.9465H5.98181C6.46507 17.9465 6.87882 17.5999 6.96343 17.124L7.86402 12.0581L15.5086 15.8488C16.1689 16.1762 16.9485 15.6955 16.9485 14.9556V0.998052C16.9485 0.258633 16.1699 -0.223302 15.5086 0.104834ZM1.99394 9.63838C1.99394 9.82163 2.14302 9.97071 2.32626 9.97071H6.91231V5.98283H2.32626C2.14302 5.98283 1.99394 6.13191 1.99394 6.31515V9.63838ZM3.83547 11.9646L3.17082 15.9525H5.14648L5.85539 11.9646H3.83547ZM8.90625 10.3492L14.9545 13.3484V2.6051L8.90625 5.60425V10.3492Z" fill="#6F7C98"/>
</svg>
