<svg width="18" height="22" viewBox="0 0 18 22" fill="none" xmlns="http://www.w3.org/2000/svg">
<path d="M5 10C4.44772 10 4 9.55228 4 9C4 8.44771 4.44772 8 5 8H13C13.5523 8 14 8.44771 14 9C14 9.55228 13.5523 10 13 10H5Z" fill="#6F7C98"/>
<path d="M5 14C4.44772 14 4 13.5523 4 13C4 12.4477 4.44772 12 5 12H13C13.5523 12 14 12.4477 14 13C14 13.5523 13.5523 14 13 14H5Z" fill="#6F7C98"/>
<path d="M5 18C4.44772 18 4 17.5523 4 17C4 16.4477 4.44772 16 5 16H9C9.55228 16 10 16.4477 10 17C10 17.5523 9.55229 18 9 18H5Z" fill="#6F7C98"/>
<path fill-rule="evenodd" clip-rule="evenodd" d="M13.5 0H6H1.80002C0.806275 0 2.47955e-05 0.839844 2.47955e-05 1.875L1.84175e-05 10.9939L0 11L1.83924e-05 11.0061L0 20C0 21.0352 1.00625 22 2 22H16C16.9937 22 18 21.0352 18 20L18 4.89724C18.0004 4.41445 18.0005 4.20164 17.9218 4.0238C17.8597 3.88365 17.7486 3.76521 17.5501 3.55343L17.5 3.5C17.3334 3.322 14.666 0.662828 14.5 0.499987C14 0 13.8677 -3.50155e-10 13.5 0ZM2 2H12V6H16L16 20H2.00002L2 2ZM15.1929 3.99999L14 2.80709V3.99999H15.1929Z" fill="#6F7C98"/>
</svg>
