<svg width="16" height="16" viewBox="0 0 16 16" fill="none" xmlns="http://www.w3.org/2000/svg">
<path fill-rule="evenodd" clip-rule="evenodd" d="M6.60837 15.8881C7.0502 15.9622 7.50385 16 7.95668 16C12.3917 16 16 12.4112 16 7.99973C16 3.5883 12.3917 -0.000547188 7.95668 6.2578e-08C7.50357 6.2578e-08 7.04964 0.0377631 6.60837 0.112194C6.41057 0.145305 6.23753 0.253121 6.12116 0.416214C6.00479 0.579032 5.95912 0.776877 5.99241 0.973628C6.06063 1.37589 6.44853 1.65664 6.85845 1.58632C7.21719 1.52584 7.58666 1.49519 7.95668 1.49519C11.5628 1.49519 14.4965 4.41334 14.4965 8C14.4965 11.5869 11.5628 14.5051 7.95668 14.5051C7.58831 14.5051 7.21911 14.4744 6.859 14.414C6.66174 14.3808 6.46312 14.4254 6.29915 14.5412C6.13491 14.6567 6.02597 14.8293 5.99241 15.0266C5.95912 15.2234 6.00479 15.4212 6.12116 15.5841C6.23725 15.7469 6.4103 15.855 6.60837 15.8881ZM6.45816 14.7639C6.5396 14.7065 6.63451 14.6767 6.7319 14.6767C6.75858 14.6767 6.78554 14.6791 6.81278 14.6835C7.18802 14.7467 7.5729 14.7785 7.95668 14.7785C11.7144 14.7785 14.7716 11.7372 14.7716 7.99945C14.7716 4.26174 11.7144 1.221 7.95668 1.221C7.57152 1.221 7.18637 1.25329 6.8125 1.31596C6.5506 1.36056 6.30658 1.18269 6.26366 0.927655C6.24248 0.802873 6.27137 0.67727 6.34509 0.574106C6.4191 0.470942 6.52859 0.402531 6.65432 0.381461C7.08046 0.309766 7.5187 0.273097 7.95668 0.273097C12.2401 0.273097 15.7249 3.73935 15.7249 7.99973C15.7249 12.2601 12.2401 15.7264 7.95668 15.7264C7.51953 15.7264 7.08128 15.69 6.65404 15.618C6.52859 15.5969 6.4191 15.5285 6.34509 15.4253C6.27137 15.3222 6.24248 15.1966 6.26366 15.0718C6.28485 14.9467 6.3539 14.8376 6.45816 14.7639Z" fill="#909EBB"/>
<path fill-rule="evenodd" clip-rule="evenodd" d="M2.76334 3.65637C2.56443 3.65637 2.37709 3.57975 2.23568 3.44074C2.09262 3.30063 2.01312 3.11373 2.01174 2.91397C2.01037 2.71448 2.08712 2.52621 2.22798 2.38365C2.81753 1.78929 3.49182 1.29262 4.23268 0.906782C4.5994 0.716052 5.05498 0.858073 5.24728 1.22312C5.43903 1.58788 5.2968 2.04049 4.93008 2.23177C4.32622 2.54592 3.77738 2.95036 3.29897 3.43362C3.15591 3.57729 2.96554 3.65637 2.76334 3.65637ZM4.57987 1.09587C4.50532 1.09587 4.43021 1.11311 4.35978 1.14951C3.64423 1.52194 2.99305 2.00191 2.42358 2.57602C2.33444 2.66605 2.28575 2.78563 2.28658 2.91233C2.28768 3.03875 2.3383 3.15751 2.42881 3.24617C2.60983 3.42404 2.92372 3.4224 3.10282 3.24152C3.60131 2.73829 4.17299 2.31688 4.80216 1.9896C5.03462 1.86864 5.12486 1.58159 5.00298 1.35009C4.91825 1.18809 4.75181 1.09587 4.57987 1.09587Z" fill="#909EBB"/>
<path fill-rule="evenodd" clip-rule="evenodd" d="M0.752568 7.6262C0.714603 7.6262 0.677188 7.62291 0.638123 7.61771L0.636197 7.61744C0.227111 7.55423 -0.0545993 7.17113 0.00895063 6.76422C0.138251 5.93754 0.395202 5.14205 0.772651 4.39938C0.862886 4.22097 1.01805 4.08798 1.20897 4.02586C1.39935 3.9632 1.60348 3.97934 1.78257 4.0691C2.15204 4.25545 2.30088 4.70559 2.11408 5.07337C1.80706 5.67812 1.59852 6.3242 1.49453 6.99326C1.43731 7.35994 1.12506 7.6262 0.752568 7.6262ZM0.677738 7.34681C0.943768 7.38347 1.18311 7.20424 1.22273 6.95112C1.33139 6.25387 1.54846 5.58043 1.86868 4.94996C1.98725 4.71681 1.89262 4.43113 1.65822 4.31346C1.5446 4.25599 1.41558 4.24669 1.29481 4.28555C1.17403 4.32523 1.07582 4.40924 1.01832 4.52252C0.653804 5.24002 0.405381 6.00814 0.280757 6.80609C0.240867 7.06358 0.418586 7.30631 0.677738 7.34681Z" fill="#909EBB"/>
<path fill-rule="evenodd" clip-rule="evenodd" d="M0.615383 11.0901C0.744134 11.3429 1.00136 11.5 1.28637 11.5C1.40494 11.5 1.51884 11.4726 1.6253 11.4193C1.8044 11.3292 1.93728 11.1749 2 10.9853C2.06272 10.7956 2.04732 10.5929 1.95681 10.4147C1.64896 9.80997 1.60056 9.68271 1.49547 9.01392C1.4641 8.81526 1.35736 8.64149 1.19477 8.52355C1.03301 8.40698 0.836033 8.35909 0.636855 8.39083C0.438502 8.42148 0.264359 8.52738 0.145787 8.68883C0.0274911 8.85001 -0.0206528 9.04731 0.0101593 9.24461C0.139735 10.068 0.23656 10.3449 0.615383 11.0901ZM0.679771 8.6612C0.704806 8.65709 0.730391 8.65518 0.755701 8.65518C0.85474 8.65518 0.951028 8.6861 1.03246 8.74493C1.13562 8.81964 1.2033 8.92991 1.22311 9.05606C1.33233 9.75331 1.38981 9.90794 1.71059 10.5381C1.76808 10.6512 1.77799 10.7795 1.7381 10.8999C1.69848 11.0203 1.61402 11.118 1.5004 11.1749C1.27152 11.2915 0.976049 11.193 0.860504 10.9664C0.494611 10.2467 0.406589 9.99713 0.281691 9.20219C0.262158 9.07714 0.29297 8.95208 0.367799 8.84974C0.443179 8.74767 0.553497 8.68062 0.679771 8.6612Z" fill="#909EBB"/>
<path d="M4.35978 1.14951C4.43021 1.11311 4.50532 1.09587 4.57987 1.09587C4.75181 1.09587 4.91825 1.18809 5.00298 1.35009C5.12486 1.58159 5.03462 1.86864 4.80216 1.9896C4.17299 2.31688 3.60131 2.73829 3.10282 3.24152C2.92372 3.4224 2.60983 3.42404 2.42881 3.24617C2.3383 3.15751 2.28768 3.03875 2.28658 2.91233C2.28575 2.78563 2.33444 2.66605 2.42358 2.57602C2.99305 2.00191 3.64423 1.52194 4.35978 1.14951Z" fill="#909EBB"/>
<path d="M6.7319 14.6767C6.63451 14.6767 6.5396 14.7065 6.45816 14.7639C6.3539 14.8376 6.28485 14.9467 6.26366 15.0718C6.24248 15.1966 6.27137 15.3222 6.34509 15.4253C6.4191 15.5285 6.52859 15.5969 6.65404 15.618C7.08128 15.69 7.51953 15.7264 7.95668 15.7264C12.2401 15.7264 15.7249 12.2601 15.7249 7.99973C15.7249 3.73935 12.2401 0.273097 7.95668 0.273097C7.5187 0.273097 7.08046 0.309766 6.65432 0.381461C6.52859 0.402531 6.4191 0.470942 6.34509 0.574106C6.27137 0.67727 6.24248 0.802873 6.26366 0.927655C6.30658 1.18269 6.5506 1.36056 6.8125 1.31596C7.18637 1.25329 7.57152 1.221 7.95668 1.221C11.7144 1.221 14.7716 4.26174 14.7716 7.99945C14.7716 11.7372 11.7144 14.7785 7.95668 14.7785C7.5729 14.7785 7.18802 14.7467 6.81278 14.6835C6.78554 14.6791 6.75858 14.6767 6.7319 14.6767Z" fill="#909EBB"/>
<path d="M1.22273 6.95112C1.18311 7.20424 0.943768 7.38347 0.677738 7.34681C0.418586 7.30631 0.240867 7.06358 0.280757 6.80609C0.405381 6.00814 0.653804 5.24002 1.01832 4.52252C1.07582 4.40924 1.17403 4.32523 1.29481 4.28555C1.41558 4.24669 1.5446 4.25599 1.65822 4.31346C1.89262 4.43113 1.98725 4.71681 1.86868 4.94996C1.54846 5.58043 1.33139 6.25387 1.22273 6.95112Z" fill="#909EBB"/>
<path d="M0.755701 8.65518C0.730391 8.65518 0.704806 8.65709 0.679771 8.6612C0.553497 8.68062 0.443179 8.74767 0.367799 8.84974C0.29297 8.95208 0.262158 9.07714 0.281691 9.20219C0.406589 9.99713 0.494611 10.2467 0.860504 10.9664C0.976049 11.193 1.27152 11.2915 1.5004 11.1749C1.61402 11.118 1.69848 11.0203 1.7381 10.8999C1.77799 10.7795 1.76808 10.6512 1.71059 10.5381C1.38981 9.90794 1.33233 9.75331 1.22311 9.05606C1.2033 8.92991 1.13562 8.81964 1.03246 8.74493C0.951028 8.6861 0.85474 8.65518 0.755701 8.65518Z" fill="#909EBB"/>
</svg>
