<svg width="24" height="24" viewBox="0 0 24 24" fill="none" xmlns="http://www.w3.org/2000/svg">
<path fill-rule="evenodd" clip-rule="evenodd" d="M10.6084 19.8881C11.0502 19.9622 11.5038 20 11.9567 20C16.3917 20 20 16.4112 20 11.9997C20 7.5883 16.3917 3.99945 11.9567 4C11.5036 4 11.0496 4.03776 10.6084 4.11219C10.4106 4.14531 10.2375 4.25312 10.1212 4.41621C10.0048 4.57903 9.95912 4.77688 9.99241 4.97363C10.0606 5.37589 10.4485 5.65664 10.8584 5.58632C11.2172 5.52584 11.5867 5.49519 11.9567 5.49519C15.5628 5.49519 18.4965 8.41334 18.4965 12C18.4965 15.5869 15.5628 18.5051 11.9567 18.5051C11.5883 18.5051 11.2191 18.4744 10.859 18.414C10.6617 18.3808 10.4631 18.4254 10.2992 18.5412C10.1349 18.6567 10.026 18.8293 9.99241 19.0266C9.95912 19.2234 10.0048 19.4212 10.1212 19.5841C10.2373 19.7469 10.4103 19.855 10.6084 19.8881ZM10.4582 18.7639C10.5396 18.7065 10.6345 18.6767 10.7319 18.6767C10.7586 18.6767 10.7855 18.6791 10.8128 18.6835C11.188 18.7467 11.5729 18.7785 11.9567 18.7785C15.7144 18.7785 18.7716 15.7372 18.7716 11.9995C18.7716 8.26174 15.7144 5.221 11.9567 5.221C11.5715 5.221 11.1864 5.25329 10.8125 5.31596C10.5506 5.36056 10.3066 5.18269 10.2637 4.92766C10.2425 4.80287 10.2714 4.67727 10.3451 4.57411C10.4191 4.47094 10.5286 4.40253 10.6543 4.38146C11.0805 4.30977 11.5187 4.2731 11.9567 4.2731C16.2401 4.2731 19.7249 7.73935 19.7249 11.9997C19.7249 16.2601 16.2401 19.7264 11.9567 19.7264C11.5195 19.7264 11.0813 19.69 10.654 19.618C10.5286 19.5969 10.4191 19.5285 10.3451 19.4253C10.2714 19.3222 10.2425 19.1966 10.2637 19.0718C10.2848 18.9467 10.3539 18.8376 10.4582 18.7639Z" fill="#909EBB"/>
<path fill-rule="evenodd" clip-rule="evenodd" d="M6.76334 7.65637C6.56443 7.65637 6.37709 7.57975 6.23568 7.44074C6.09262 7.30063 6.01312 7.11373 6.01174 6.91397C6.01037 6.71448 6.08712 6.52621 6.22798 6.38365C6.81753 5.78929 7.49182 5.29262 8.23268 4.90678C8.5994 4.71605 9.05498 4.85807 9.24728 5.22312C9.43903 5.58788 9.2968 6.04049 8.93008 6.23177C8.32622 6.54592 7.77738 6.95036 7.29897 7.43362C7.15591 7.57728 6.96554 7.65637 6.76334 7.65637ZM8.57987 5.09587C8.50532 5.09587 8.43021 5.11311 8.35978 5.14951C7.64423 5.52194 6.99305 6.00191 6.42358 6.57602C6.33444 6.66605 6.28575 6.78563 6.28658 6.91233C6.28768 7.03875 6.3383 7.15751 6.42881 7.24617C6.60983 7.42404 6.92372 7.4224 7.10282 7.24152C7.60131 6.73829 8.17299 6.31688 8.80216 5.9896C9.03462 5.86864 9.12486 5.58159 9.00298 5.35009C8.91825 5.18809 8.75181 5.09587 8.57987 5.09587Z" fill="#909EBB"/>
<path fill-rule="evenodd" clip-rule="evenodd" d="M4.75257 11.6262C4.7146 11.6262 4.67719 11.6229 4.63812 11.6177L4.6362 11.6174C4.22711 11.5542 3.9454 11.1711 4.00895 10.7642C4.13825 9.93754 4.3952 9.14205 4.77265 8.39938C4.86289 8.22097 5.01805 8.08798 5.20897 8.02586C5.39935 7.9632 5.60348 7.97934 5.78257 8.0691C6.15204 8.25545 6.30088 8.70559 6.11408 9.07337C5.80706 9.67812 5.59852 10.3242 5.49453 10.9933C5.43731 11.3599 5.12506 11.6262 4.75257 11.6262ZM4.67774 11.3468C4.94377 11.3835 5.18311 11.2042 5.22273 10.9511C5.33139 10.2539 5.54846 9.58043 5.86868 8.94996C5.98725 8.71681 5.89262 8.43113 5.65822 8.31346C5.5446 8.25599 5.41558 8.24669 5.29481 8.28555C5.17403 8.32523 5.07582 8.40924 5.01832 8.52252C4.6538 9.24002 4.40538 10.0081 4.28076 10.8061C4.24087 11.0636 4.41859 11.3063 4.67774 11.3468Z" fill="#909EBB"/>
<path fill-rule="evenodd" clip-rule="evenodd" d="M4.61538 15.0901C4.74413 15.3429 5.00136 15.5 5.28637 15.5C5.40494 15.5 5.51884 15.4726 5.6253 15.4193C5.8044 15.3292 5.93728 15.1749 6 14.9853C6.06272 14.7956 6.04732 14.5929 5.95681 14.4147C5.64896 13.81 5.60056 13.6827 5.49547 13.0139C5.4641 12.8153 5.35736 12.6415 5.19477 12.5236C5.03301 12.407 4.83603 12.3591 4.63685 12.3908C4.4385 12.4215 4.26436 12.5274 4.14579 12.6888C4.02749 12.85 3.97935 13.0473 4.01016 13.2446C4.13974 14.068 4.23656 14.3449 4.61538 15.0901ZM4.67977 12.6612C4.70481 12.6571 4.73039 12.6552 4.7557 12.6552C4.85474 12.6552 4.95103 12.6861 5.03246 12.7449C5.13562 12.8196 5.2033 12.9299 5.22311 13.0561C5.33233 13.7533 5.38981 13.9079 5.71059 14.5381C5.76808 14.6512 5.77799 14.7795 5.7381 14.8999C5.69848 15.0203 5.61402 15.118 5.5004 15.1749C5.27152 15.2915 4.97605 15.193 4.8605 14.9664C4.49461 14.2467 4.40659 13.9971 4.28169 13.2022C4.26216 13.0771 4.29297 12.9521 4.3678 12.8497C4.44318 12.7477 4.5535 12.6806 4.67977 12.6612Z" fill="#909EBB"/>
<path d="M8.35978 5.14951C8.43021 5.11311 8.50532 5.09587 8.57987 5.09587C8.75181 5.09587 8.91825 5.18809 9.00298 5.35009C9.12486 5.58159 9.03462 5.86864 8.80216 5.9896C8.17299 6.31688 7.60131 6.73829 7.10282 7.24152C6.92372 7.4224 6.60983 7.42404 6.42881 7.24617C6.3383 7.15751 6.28768 7.03875 6.28658 6.91233C6.28575 6.78563 6.33444 6.66605 6.42358 6.57602C6.99305 6.00191 7.64423 5.52194 8.35978 5.14951Z" fill="#909EBB"/>
<path d="M10.7319 18.6767C10.6345 18.6767 10.5396 18.7065 10.4582 18.7639C10.3539 18.8376 10.2848 18.9467 10.2637 19.0718C10.2425 19.1966 10.2714 19.3222 10.3451 19.4253C10.4191 19.5285 10.5286 19.5969 10.654 19.618C11.0813 19.69 11.5195 19.7264 11.9567 19.7264C16.2401 19.7264 19.7249 16.2601 19.7249 11.9997C19.7249 7.73935 16.2401 4.2731 11.9567 4.2731C11.5187 4.2731 11.0805 4.30977 10.6543 4.38146C10.5286 4.40253 10.4191 4.47094 10.3451 4.57411C10.2714 4.67727 10.2425 4.80287 10.2637 4.92766C10.3066 5.18269 10.5506 5.36056 10.8125 5.31596C11.1864 5.25329 11.5715 5.221 11.9567 5.221C15.7144 5.221 18.7716 8.26174 18.7716 11.9995C18.7716 15.7372 15.7144 18.7785 11.9567 18.7785C11.5729 18.7785 11.188 18.7467 10.8128 18.6835C10.7855 18.6791 10.7586 18.6767 10.7319 18.6767Z" fill="#909EBB"/>
<path d="M5.22273 10.9511C5.18311 11.2042 4.94377 11.3835 4.67774 11.3468C4.41859 11.3063 4.24087 11.0636 4.28076 10.8061C4.40538 10.0081 4.6538 9.24002 5.01832 8.52252C5.07582 8.40924 5.17403 8.32523 5.29481 8.28555C5.41558 8.24669 5.5446 8.25599 5.65822 8.31346C5.89262 8.43113 5.98725 8.71681 5.86868 8.94996C5.54846 9.58043 5.33139 10.2539 5.22273 10.9511Z" fill="#909EBB"/>
<path d="M4.7557 12.6552C4.73039 12.6552 4.70481 12.6571 4.67977 12.6612C4.5535 12.6806 4.44318 12.7477 4.3678 12.8497C4.29297 12.9521 4.26216 13.0771 4.28169 13.2022C4.40659 13.9971 4.49461 14.2467 4.8605 14.9664C4.97605 15.193 5.27152 15.2915 5.5004 15.1749C5.61402 15.118 5.69848 15.0203 5.7381 14.8999C5.77799 14.7795 5.76808 14.6512 5.71059 14.5381C5.38981 13.9079 5.33233 13.7533 5.22311 13.0561C5.2033 12.9299 5.13562 12.8196 5.03246 12.7449C4.95103 12.6861 4.85474 12.6552 4.7557 12.6552Z" fill="#909EBB"/>
<path d="M14.7367 11.5155L10.8081 9.07696C10.4889 8.87893 10 9.07111 10 9.56093V14.4369C10 14.8763 10.4543 15.1412 10.8081 14.9209L14.7367 12.4835C15.0872 12.2667 15.0883 11.7323 14.7367 11.5155V11.5155Z" fill="#909EBB"/>
</svg>
