<svg width="22" height="22" viewBox="0 0 22 22" fill="none" xmlns="http://www.w3.org/2000/svg">
<path d="M5 5C4.44775 5 4 5.44772 4 6C4 6.55228 4.44775 7 5 7H10C10.5522 7 11 6.55228 11 6C11 5.44772 10.5522 5 10 5H5Z" fill="#6F7C98"/>
<path d="M11 11C11 10.4477 11.4478 10 12 10H17C17.5522 10 18 10.4477 18 11C18 11.5523 17.5522 12 17 12H12C11.4478 12 11 11.5523 11 11Z" fill="#6F7C98"/>
<path d="M5 15C4.44775 15 4 15.4477 4 16C4 16.5523 4.44775 17 5 17H10C10.5522 17 11 16.5523 11 16C11 15.4477 10.5522 15 10 15H5Z" fill="#6F7C98"/>
<path d="M15.7324 15C15.3866 14.4022 14.7404 14 14 14C12.8954 14 12 14.8954 12 16C12 17.1046 12.8954 18 14 18C14.7404 18 15.3866 17.5978 15.7324 17H17C17.5522 17 18 16.5523 18 16C18 15.4477 17.5522 15 17 15H15.7324Z" fill="#6F7C98"/>
<path d="M5 10C4.44775 10 4 10.4477 4 11C4 11.5523 4.44775 12 5 12H6.26758C6.6134 12.5978 7.25964 13 8 13C9.10461 13 10 12.1046 10 11C10 9.89542 9.10461 9 8 9C7.25964 9 6.6134 9.40219 6.26758 10H5Z" fill="#6F7C98"/>
<path d="M15.7324 5C15.3866 4.40219 14.7404 4 14 4C12.8954 4 12 4.89542 12 6C12 7.10458 12.8954 8 14 8C14.7404 8 15.3866 7.59781 15.7324 7H17C17.5522 7 18 6.55228 18 6C18 5.44772 17.5522 5 17 5H15.7324Z" fill="#6F7C98"/>
<path fill-rule="evenodd" clip-rule="evenodd" d="M2 0H20C21.1041 0 22 0.895844 22 2V19.6667C22 20.7708 21.1041 21.6667 20 21.6667H2C0.895874 21.6667 0 20.7708 0 19.6667V2C0 0.895844 0.895874 0 2 0ZM2 2V19.6667H20V2H2Z" fill="#6F7C98"/>
</svg>
