<svg width="32" height="32" viewBox="0 0 32 32" fill="none" xmlns="http://www.w3.org/2000/svg">
<circle cx="16" cy="16" r="16" fill="#EFF0F2"/>
<path fill-rule="evenodd" clip-rule="evenodd" d="M19.0756 11.0227C19.0756 12.692 17.7222 14.0453 16.0529 14.0453C14.3835 14.0453 13.0302 12.692 13.0302 11.0227C13.0302 9.35329 14.3835 8 16.0529 8C17.7222 8 19.0756 9.35329 19.0756 11.0227ZM17.0605 11.0227C17.0605 11.5792 16.6094 12.0303 16.0529 12.0303C15.4965 12.0303 15.0453 11.5792 15.0453 11.0227C15.0453 10.4662 15.4965 10.0151 16.0529 10.0151C16.6094 10.0151 17.0605 10.4662 17.0605 11.0227Z" fill="#909EBB"/>
<path fill-rule="evenodd" clip-rule="evenodd" d="M10.7967 18.4786C11.418 16.1575 13.5359 14.4484 16.0529 14.4484C18.5699 14.4484 20.6878 16.1575 21.3091 18.4786H23.1058V20.4937H9V18.4786H10.7967ZM16.0529 16.4635C17.4419 16.4635 18.638 17.2903 19.1756 18.4786H12.9302C13.4678 17.2903 14.6639 16.4635 16.0529 16.4635Z" fill="#909EBB"/>
<path d="M12.0227 21.9849V24H20.0831V21.9849H12.0227Z" fill="#909EBB"/>
</svg>
