<svg width="15" height="16" viewBox="0 0 15 16" fill="none" xmlns="http://www.w3.org/2000/svg">
<path fill-rule="evenodd" clip-rule="evenodd" d="M10.0756 3.02267C10.0756 4.69205 8.72225 6.04534 7.05289 6.04534C5.38354 6.04534 4.03023 4.69205 4.03023 3.02267C4.03023 1.35329 5.38354 0 7.05289 0C8.72225 0 10.0756 1.35329 10.0756 3.02267ZM8.06045 3.02269C8.06045 3.57916 7.60941 4.03027 7.05289 4.03027C6.49648 4.03027 6.04534 3.57916 6.04534 3.02269C6.04534 2.46623 6.49648 2.01511 7.05289 2.01511C7.60941 2.01511 8.06045 2.46623 8.06045 3.02269Z" fill="#909EBB"/>
<path fill-rule="evenodd" clip-rule="evenodd" d="M1.79668 10.4786C2.41804 8.15752 4.53587 6.44836 7.05289 6.44836C9.56992 6.44836 11.6878 8.15752 12.3091 10.4786H14.1058V12.4937H0V10.4786H1.79668ZM7.05289 8.46347C8.44193 8.46347 9.63801 9.29026 10.1756 10.4786H3.93016C4.46778 9.29026 5.66386 8.46347 7.05289 8.46347Z" fill="#909EBB"/>
<path d="M3.02267 13.9849V16H11.0831V13.9849H3.02267Z" fill="#909EBB"/>
</svg>
